<svg xmlns="http://www.w3.org/2000/svg" width="500" height="500" viewBox="0 0 500 500"><path fill="#F1C9A5" d="M178.049 350.425l67.539 101.731 68.694-101.731V232.379H178.049z"/><g fill="#F4EFC3" stroke="#D6D1AB" stroke-miterlimit="10"><path d="M122.921 336.432V504h25V329.799c-7.286 1.736-15.93 3.955-25 6.633zM179.152 355.715c-2.261-4.987-3.158-12.334-6.231-18.243V504h25V377.047c-9.116-12.886-18.769-21.332-18.769-21.332zM197.921 377.047V504h25v-91.753a10881.651 10881.651 0 0 1-25-35.2zM72.921 356.665V504h25V344.835c-9.092 3.508-17.739 7.459-25 11.83z"/><path d="M55.496 372.212c-2.649 7.705-5.18 15.728-7.574 23.827V504h25V356.665c-7.819 4.706-14.03 9.896-17.426 15.547zM23.764 504h24.158V396.039C33.275 445.587 23.764 504 23.764 504zM222.921 412.247V504h25v-57.358c-3.716-4.731-13.804-18.713-25-34.395zM97.921 344.835V504h25V336.432c-8.223 2.429-16.789 5.235-25 8.403zM168.4 325.304c-1.464.329-9.4 1.856-20.479 4.495V504h25V337.472c-2.398-4.609-4.294-8.951-4.521-12.168zM397.921 347.043V504h25V359.878c-6.987-4.581-15.674-8.892-25-12.835zM436.278 371.905c-2.841-4.161-7.503-8.188-13.357-12.026V504h25V400.423c-3.498-9.958-7.377-19.658-11.643-28.518zM372.921 337.681V504h25V347.043c-8.086-3.419-16.649-6.56-25-9.362z"/><path d="M447.921 400.423V504h24.158c.001 0-7.991-57.559-24.158-103.577zM291.14 386.817l-18.218 25.743V504h25l1-130.572c-3.401 6.312-7.01 11.314-7.782 13.389zM347.921 329.998V504h25V337.681c-8.851-2.968-17.456-5.555-25-7.683zM247.921 446.642V504h25v-91.44z"/><path d="M322.248 323.375c-.326 4.64-15.188 33.089-24.327 50.054V504h25V323.527c-.302-.069-.529-.121-.673-.152zM322.921 323.527V504h25V329.998c-12.558-3.543-22.165-5.818-25-6.471z"/></g><path fill="#D6D1AB" stroke="#D6D1AB" stroke-miterlimit="10" d="M359.292 394.006l-53.218-25.257-58.152 77.893 71.146-139.683 29.197 17.104c2.094 30.263 11.027 69.943 11.027 69.943M132.97 393.006l53.22-25.257 61.731 78.893-74.728-140.683-29.197 17.104c-2.094 30.263-11.026 69.943-11.026 69.943"/><circle fill="#FFF" cx="248.921" cy="459.595" r="4.497"/><circle fill="#FFF" cx="248.921" cy="493.585" r="4.497"/><g fill="#F2D0B3"><path d="M347.141 148.204c0-75.397-41.683-118.271-93.097-118.271-51.417 0-93.098 42.875-93.098 118.271 0 101.412 41.682 136.522 93.098 136.522 51.414.001 93.097-39.338 93.097-136.522"/><path d="M324.33 204.731c-16.029-1.672-26.852-18.872-24.139-38.397 2.682-19.543 17.863-34.05 33.898-32.389 16.02 1.663 26.826 18.856 24.121 38.396-2.69 19.541-17.855 34.04-33.88 32.39M141.145 172.34c-2.705-19.54 8.101-36.732 24.114-38.396 16.043-1.662 31.225 12.846 33.913 32.389 2.706 19.526-8.125 36.725-24.145 38.397-16.027 1.651-31.191-12.848-33.882-32.39"/></g><path fill="#514E49" d="M258.296 9.933c-72.489 0-113.79 33.333-101.982 128.161 0 0 6.765 4.17 7.507 1.007 2.37-10.108-.797-47.173 15.892-61.13 21.322-17.832 38.135 10.4 87.407-12.203 18.818-8.632 18.639 20.591 50.028 37.247.218.496.421.97.632 1.455 12.515-4.778 11.338-6.925 24.318-10.148-8.418-41.633-36.47-84.389-83.802-84.389zM319.283 106.678c13.491 31.031-.091 36.016 26.525 33.357 2.996-16.634-.78-29.021-3.71-43.505-12.981 3.224-10.3 5.371-22.815 10.148zM245.179 185.14c7.345 5.173 3.845 20.923-1.655 22.423-6.25 3.75-22.965-1.645-30.584 11.94-8.053 14.358-4.029 21.04-7.666 23.81-2.682 2.042-15 .291-12.25-15.5 0 0 16.25-50 52.155-42.673z"/><path fill="#514E49" d="M254.822 185.14c-7.345 5.173-3.845 20.923 1.655 22.423 6.25 3.75 22.965-1.645 30.584 11.94 8.053 14.358 4.029 21.04 7.666 23.81 2.682 2.042 15 .291 12.25-15.5 0 0-16.25-50-52.155-42.673z"/><path fill="#514E49" d="M346.237 216.881c-.246-15.708-12.633-79.161-12.633-79.161h-5.021s-17.927 74.726-25.755 85.373c-7.829 10.648 2.473 39.077-24.293 40.792-13.605.872-16.097-23.788-23.019-25.81h-11.034c-6.922 2.022-9.522 27.736-23.019 25.81-25.957-3.704-16.464-30.144-24.293-40.792-7.828-10.647-32.775-89.277-32.775-89.277h-5.021s-5.367 67.357-5.613 83.065c-.544 34.76 12.67 50.729 29.606 72.812 9.199 11.996 28.756 56.281 37.584 68.855 14.368 20.463 21.905 20.177 33.43 20.177 10.558 0 14.274.286 28.642-20.177 8.829-12.574 24.407-56.86 33.606-68.855 16.938-22.084 30.153-38.052 29.608-72.812z"/></svg>