<?xml version="1.0" encoding="UTF-8"?>
<!-- Generator: Adobe Illustrator 12.0.0, SVG Export Plug-In . SVG Version: 6.00 Build 51448)  -->
<!DOCTYPE svg PUBLIC "-//W3C//DTD SVG 1.1//EN" "http://www.w3.org/Graphics/SVG/1.1/DTD/svg11.dtd" [
	<!ENTITY ns_svg "http://www.w3.org/2000/svg">
	<!ENTITY ns_xlink "http://www.w3.org/1999/xlink">
]>
<svg version="1.1" id="Ebene_1" xmlns="http://www.w3.org/2000/svg" xmlns:xlink="http://www.w3.org/1999/xlink" width="484.044" height="809" viewBox="0 0 484.044 809" overflow="visible" enable-background="new 0 0 484.044 809" xml:space="preserve">
<g>
	<defs>
		<rect id="XMLID_4_" x="0.044" width="484" height="809"/>
	</defs>
	<clipPath id="XMLID_6_">
		<use xlink:href="#XMLID_4_"/>
	</clipPath>
	<g clip-path="url(#XMLID_6_)">
		<path fill-rule="evenodd" clip-rule="evenodd" d="M275.044,86c-3.028-5.646-15.755-10.238-21-17c23.145,2.522,29.313,22.021,42,35    c-1.943-13.057-12.495-17.505-17-28c1.794-0.127,2.109,1.224,4,1c-1.272-4.061-9.157-1.509-10-6c1.922-2.079,8.375,0.375,9-3    c10.613,2.387,12.744,13.256,21,18c0.635-6.968-5.88-6.787-5-14c18.235,21.764,33.571,46.429,41,79c7.569-3.297,1.613-14.364,2-22    c33.08,24.168,19.32,93.329,7,130c-14.367-16.41-5.928-55.253-6-81c-10.854-11.963-27.39-37.973-30-57    c-27.807-2.681-33.98-32.316-63-36c-3.724-0.473-9.134,1.241-13,0c-7.535-2.418-12.526-13.353-19-18    c3.461-4.031,14.539-0.581,18-2c-3.843-4.491-14.056-2.61-22-3C239.359,50.139,256.497,77.28,275.044,86z"/>
		<path fill-rule="evenodd" clip-rule="evenodd" d="M226.044,79c-14.245,4.751-18.438-7.873-26-13    C211.174,60.329,220.696,72.349,226.044,79z"/>
		<path fill-rule="evenodd" clip-rule="evenodd" d="M174.044,86c-2.648,8.691-10.125,21.204-21,25    C153.922,100.539,161.203,87.83,174.044,86z"/>
		<path fill-rule="evenodd" clip-rule="evenodd" d="M232.044,196c6.676,4.657,11.44,11.227,20,14c-0.32,17.679-6.8,29.2-20,34    c2.159-10.825-6.309-11.025-6-20c-16.127,0.551-37.535-1.621-51-7c4.671-18.328,32.69-13.31,50-19    c-10.358-2.969-29.147-1.734-38-3c-0.535-15.937,57.084-22.564,56-6C242.699,194.264,237.964,194.496,232.044,196z"/>
		<path fill-rule="evenodd" clip-rule="evenodd" d="M322.044,197c-0.332,8.654-11.85,9.231-20,7c3.13,6.87,14.96,5.04,21,9    c0.253,3.414,2.528,4.805,2,9c-6.571-0.917-17.175-0.887-26,1c-2.71,0.905,0.842,3.681,2,4c-9.98,9.03-27.707-0.11-30-9    c-3.629-14.072,13.211-20.655,15-32C302.519,185.192,309.742,193.635,322.044,197z"/>
		<path fill-rule="evenodd" clip-rule="evenodd" d="M215.044,265c4.131,1.148,7.869,1.148,12,0c-5.527,17.274,25.915,0.483,29,13    c0.093,4.51-3.02-0.437-6,1c7.528,21.346,16.843-3.712,27-6c4.758,14.843-13.933,14.671-15,27c-2.753-0.581-4.177-2.49-7-3    c-2.169-0.168-0.453,3.547-1,5c-19.152-4.706-39.255-16.209-61-12c0.008-14.992,16.967-13.033,28-17    C220.445,268.933,213.106,271.604,215.044,265z"/>
		<path fill-rule="evenodd" clip-rule="evenodd" d="M111.044,269c5.001,5.999,7.261,14.739,18,15c-1.656,4.011-1.714,9.619-6,11    C111.143,294.235,110.732,281.978,111.044,269z"/>
		<path fill-rule="evenodd" clip-rule="evenodd" d="M302.044,288c15.555,31.351-38.119,23.256-64,25c3.317,4.35,10.067,5.266,18,5    c-19.145,7.776-41.692-4.234-51-16c-2.82,0.18-1.247,4.753-5,4c-3.51,0.877-1.04-2.593,0-3c-1.43-3.903-6.84-3.826-6-10    c29.349,6.938,72.501,19.572,104,6c1.988-6.026-4.48-8.802-3-11C298.701,287.782,298.88,286.626,302.044,288z"/>
		<path fill-rule="evenodd" clip-rule="evenodd" d="M253.044,329c1.483,0.85,2.15,2.517,2,5c-2.922,2.078-9.583,0.417-11,4    c-1.166-2.501-3.487-3.846-3-8C244.106,326.625,250.716,331.806,253.044,329z"/>
		<path fill-rule="evenodd" clip-rule="evenodd" d="M149.044,348c3.802,2.253,8.483,4.14,14,2c0.26,3.073,2.169,4.497,3,7    c30.949,11.717,47.664,37.669,84,44c-0.91,1.757-3.504,1.829-5,3c2.449,4.723,6.112,11.85,3,19c-4.165,0.502-5.485,3.848-10,4    c-0.396,2.396,4.555-0.555,3,3c-5.17,4.639-8.836-2.772-11-7c-43.762-1.719-70.311-36.588-87-66c-0.212-4.629,3.566,0.983,5-2    C148.054,352.344,147.666,349.289,149.044,348z"/>
		<path fill-rule="evenodd" clip-rule="evenodd" d="M317.044,458c16.337,22.495,38.385,52.456,27,93c-4.736,0.402-6.882-1.785-12-1    c-5.482-40.518-27.684-64.316-38-100c-5.271,1.396-0.919,12.414-7,13c7.069-27.265,20.541-48.126,22-81    c5.084,18.997,18.064,32.849,31,48c31.575,36.982,76.512,94.146,56,163c-3.397-0.936-7.329-1.338-11-2    c4.218-22.647-17.162-28.1-31-36C360.024,511.328,340.006,479.102,317.044,458z M358.044,478c1.894-1.443,8.915,1.571,9-1    c2.275-2.509-1.719-5.937-3-8c-13.123-21.146-31.747-43.849-47-58C333.486,430.557,343.664,456.38,358.044,478z"/>
		<path fill-rule="evenodd" clip-rule="evenodd" d="M217.044,462c3.787,16.213,27.584,12.416,31,29    c-29.648-9.686-43.519-35.148-69-49c-7.239,3.069,1.817,12.305-2,18c-2.395,0.604-4.563,1.438-8,1c-2.117-2.101,1.176-3.899,2-6    c-1.136-2.342-3.344,2.561-4,4c-4.411-3.922-9.194-7.473-12-13c-15.803,40.53-39.819,72.848-43,126    c-24.756-31.036-1.263-79.803,13-105c-15.692,27.204-36.647,49.533-31,89c3.495,24.425,23.123,35.485,37,45    c14.968,10.263,34.864,24.772,38,43c1.868,10.859-6.597,21.395-17,19c-9.739-2.242-24.851-36.177-30-46    c-9.864-18.817-33.006-53.285-59-31c-5.638-75.695,39.196-118.096,71-163c-3.262-10.076-15.231-16.762-18-24    c21.163,7.17,27.941,28.726,44,41c10.762-9.556,28.394-20.696,49-14c1.102,5.103-7.102,0.897-6,6c2.252,4.251,8.317,0.393,12,0    c2.848,4.088-5.909,3.678-6,8c0.313,5.021,6.377,4.29,10,6c4.45-0.217,3.37-5.963,7-7c11.092,3.908,20.102,9.898,28,17    C243.864,463.056,224.369,480.576,217.044,462z M88.044,497c5.402,0.074,5.3,0.451,9,1c9.305-21.362,24.806-36.527,33-59    C111.624,453.913,98.924,474.547,88.044,497z"/>
		<path fill-rule="evenodd" clip-rule="evenodd" fill="#FFFFFF" d="M130.044,439c-8.194,22.473-23.695,37.638-33,59    c-3.7-0.549-3.598-0.926-9-1C98.924,474.547,111.624,453.913,130.044,439z"/>
		<path fill-rule="evenodd" clip-rule="evenodd" d="M267.044,487c-3.251,36.89,0.531,74.579,4,108c-4.676-10.902-9.837-24.687-8-39    c-0.846-2.595-4.387,1.924-6-1c0.639-24.605,15.359-71.996-12-81c-0.163-1.163,0.221-1.779,1-2    C258.234,467.922,259.768,482.86,267.044,487z"/>
		<path fill-rule="evenodd" clip-rule="evenodd" d="M333.044,559c13.557-2.262,47.741,10.828,49,26    c1.326,15.993-26.828,33.788-45,30C317.673,610.962,307.03,563.34,333.044,559z M323.044,580c15.833-1.913,23.939,1.674,41-2    C356.765,568.416,322.003,552.092,323.044,580z"/>
		<path fill-rule="evenodd" clip-rule="evenodd" fill="#FFFFFF" d="M364.044,578c-17.061,3.674-25.167,0.087-41,2    C322.003,552.092,356.765,568.416,364.044,578z"/>
		<path fill-rule="evenodd" clip-rule="evenodd" d="M283.044,676c1.943,9.672-8.943,29.009-4,45c-14.695,3.322-29.457-1.88-44-3    c-22.184-1.709-42.625,5.306-64,6c6.802-13.096,1.201-31.836-5-41C194.828,707.935,259.313,699.985,283.044,676z"/>
		<path fill-rule="evenodd" clip-rule="evenodd" fill="#FFFFFF" d="M1.044,0c161,0,322,0,483,0c0,269.667,0,539.333,0,809    c-161.334,0-322.667,0-484,0c0-268.667,0-537.333,0-806C-0.042,1.581-0.121,0.168,1.044,0z M200.044,66    c7.563,5.127,11.755,17.751,26,13C220.696,72.349,211.174,60.329,200.044,66z M213.044,62c7.944,0.39,18.157-1.491,22,3    c-3.461,1.419-14.539-2.031-18,2c6.474,4.647,11.465,15.582,19,18c3.866,1.241,9.276-0.473,13,0c29.02,3.684,35.193,33.319,63,36    c2.61,19.027,19.146,45.037,30,57c0.072,25.747-8.367,64.59,6,81c12.32-36.671,26.08-105.832-7-130    c-0.387,7.636,5.569,18.703-2,22c-7.429-32.571-22.765-57.236-41-79c-0.88,7.213,5.635,7.032,5,14    c-8.256-4.744-10.387-15.613-21-18c-0.625,3.375-7.078,0.921-9,3c0.843,4.491,8.728,1.939,10,6c-1.891,0.224-2.206-1.127-4-1    c4.505,10.495,15.057,14.943,17,28c-12.688-12.979-18.855-32.478-42-35c5.245,6.762,17.972,11.354,21,17    C256.497,77.28,239.359,50.139,213.044,62z M153.044,111c10.875-3.796,18.352-16.309,21-25    C161.203,87.83,153.922,100.539,153.044,111z M136.044,121c-0.547-1.453,1.168-5.168-1-5c0.022,2.356-1.723,2.944-1,6    c-31.82,14.255-39.054,68.458-29,112c8.226,0.892,5.279-9.388,13-9c1.357,2.309,2.875,4.458,3,8c-3.509-2.778-5.398,2.745-10,2    c-3.787,11.225,3.798,12.65,10,16c4.14,2.236,6.423,7.083,8,4c-0.553-4.113-2.866-6.467-3-11c24.109-24.891,15.688-82.313,26-121    c0.715-2.715-4.715,0.715-4-2c2.122-2.211,4.534-4.133,6-7C144.665,112.446,141.05,121.457,136.044,121z M243.044,189    c1.084-16.564-56.535-9.937-56,6c8.853,1.266,27.642,0.031,38,3c-17.31,5.69-45.329,0.672-50,19c13.465,5.379,34.873,7.551,51,7    c-0.309,8.975,8.159,9.175,6,20c13.2-4.8,19.68-16.321,20-34c-8.56-2.773-13.324-9.343-20-14    C237.964,194.496,242.699,194.264,243.044,189z M286.044,186c-1.789,11.345-18.629,17.928-15,32c2.293,8.89,20.02,18.03,30,9    c-1.158-0.319-4.71-3.095-2-4c8.825-1.887,19.429-1.917,26-1c0.528-4.195-1.747-5.586-2-9c-6.04-3.96-17.87-2.13-21-9    c8.15,2.231,19.668,1.654,20-7C309.742,193.635,302.519,185.192,286.044,186z M221.044,273c-11.033,3.967-27.992,2.008-28,17    c21.745-4.209,41.848,7.294,61,12c0.547-1.453-1.169-5.168,1-5c2.823,0.51,4.247,2.419,7,3c1.067-12.329,19.758-12.157,15-27    c-10.157,2.288-19.472,27.346-27,6c2.98-1.437,6.093,3.51,6-1c-3.085-12.517-34.527,4.274-29-13c-4.131,1.148-7.869,1.148-12,0    C213.106,271.604,220.445,268.933,221.044,273z M123.044,295c4.286-1.381,4.344-6.989,6-11c-10.739-0.261-12.999-9.001-18-15    C110.732,281.978,111.143,294.235,123.044,295z M295.044,288c-1.48,2.198,4.988,4.974,3,11c-31.499,13.572-74.651,0.938-104-6    c-0.84,6.174,4.57,6.097,6,10c-1.04,0.407-3.51,3.877,0,3c3.753,0.753,2.18-3.82,5-4c9.308,11.766,31.855,23.776,51,16    c-7.933,0.266-14.683-0.65-18-5c25.881-1.744,79.555,6.351,64-25C298.88,286.626,298.701,287.782,295.044,288z M241.044,330    c-0.487,4.154,1.834,5.499,3,8c1.417-3.583,8.078-1.922,11-4c0.15-2.483-0.517-4.15-2-5    C250.716,331.806,244.106,326.625,241.044,330z M148.044,355c-1.434,2.983-5.212-2.629-5,2c16.689,29.412,43.238,64.281,87,66    c2.164,4.228,5.83,11.639,11,7c1.555-3.555-3.396-0.604-3-3c4.515-0.152,5.835-3.498,10-4c3.112-7.15-0.551-14.277-3-19    c1.496-1.171,4.09-1.243,5-3c-36.336-6.331-53.051-32.283-84-44c-0.831-2.503-2.74-3.927-3-7c-5.517,2.14-10.198,0.253-14-2    C147.666,349.289,148.054,352.344,148.044,355z M354.044,555c13.838,7.9,35.218,13.353,31,36c3.671,0.662,7.603,1.064,11,2    c20.512-68.854-24.425-126.018-56-163c-12.936-15.151-25.916-29.003-31-48c-1.459,32.874-14.931,53.735-22,81    c6.081-0.586,1.729-11.604,7-13c10.316,35.684,32.518,59.482,38,100c5.118-0.785,7.264,1.402,12,1    c11.385-40.544-10.663-70.505-27-93C340.006,479.102,360.024,511.328,354.044,555z M254.044,456c-7.898-7.102-16.908-13.092-28-17    c-3.63,1.037-2.55,6.783-7,7c-3.623-1.71-9.688-0.979-10-6c0.091-4.322,8.848-3.912,6-8c-3.683,0.393-9.748,4.251-12,0    c-1.102-5.103,7.102-0.897,6-6c-20.606-6.696-38.238,4.444-49,14c-16.059-12.274-22.837-33.83-44-41    c2.769,7.238,14.738,13.924,18,24c-31.804,44.904-76.638,87.305-71,163c25.994-22.285,49.136,12.183,59,31    c5.149,9.823,20.261,43.758,30,46c10.403,2.395,18.868-8.141,17-19c-3.136-18.228-23.032-32.737-38-43    c-13.877-9.515-33.505-20.575-37-45c-5.647-39.467,15.308-61.796,31-89c-14.263,25.197-37.756,73.964-13,105    c3.181-53.152,27.197-85.47,43-126c2.806,5.527,7.589,9.078,12,13c0.656-1.439,2.864-6.342,4-4c-0.824,2.101-4.117,3.899-2,6    c3.438,0.438,5.605-0.396,8-1c3.817-5.695-5.239-14.931,2-18c25.481,13.852,39.352,39.314,69,49    c-3.416-16.584-27.213-12.787-31-29C224.369,480.576,243.864,463.056,254.044,456z M246.044,472c-0.779,0.221-1.163,0.837-1,2    c27.359,9.004,12.639,56.395,12,81c1.613,2.924,5.154-1.595,6,1c-1.837,14.313,3.324,28.098,8,39c-3.469-33.421-7.251-71.11-4-108    C259.768,482.86,258.234,467.922,246.044,472z M337.044,615c18.172,3.788,46.326-14.007,45-30c-1.259-15.172-35.443-28.262-49-26    C307.03,563.34,317.673,610.962,337.044,615z M166.044,683c6.201,9.164,11.802,27.904,5,41c21.375-0.694,41.816-7.709,64-6    c14.543,1.12,29.305,6.322,44,3c-4.943-15.991,5.943-35.328,4-45C259.313,699.985,194.828,707.935,166.044,683z"/>
		<path fill-rule="evenodd" clip-rule="evenodd" fill="#FFFFFF" d="M317.044,411c15.253,14.151,33.877,36.854,47,58    c1.281,2.063,5.275,5.491,3,8c-0.085,2.571-7.106-0.443-9,1C343.664,456.38,333.486,430.557,317.044,411z"/>
		<path fill-rule="evenodd" clip-rule="evenodd" d="M154.044,114c-1.466,2.867-3.878,4.789-6,7c-0.715,2.715,4.715-0.715,4,2    c-10.313,38.688-1.891,96.109-26,121c0.134,4.533,2.447,6.887,3,11c-1.577,3.083-3.86-1.764-8-4c-6.202-3.35-13.787-4.775-10-16    c4.602,0.745,6.491-4.778,10-2c-0.125-3.542-1.643-5.691-3-8c-7.721-0.388-4.774,9.892-13,9c-10.054-43.542-2.82-97.745,29-112    c-0.723-3.056,1.022-3.644,1-6c2.168-0.168,0.453,3.547,1,5C141.05,121.457,144.665,112.446,154.044,114z"/>
	</g>
</g>
</svg>